<svg width="332" height="35" viewBox="0 0 332 35" fill="none" xmlns="http://www.w3.org/2000/svg">
    <path d="M69.1028 0.514129V21.1263C69.1028 25.4086 67.8453 28.7202 65.3876 31.1183C62.7584 33.6306 58.9861 34.8867 54.0136 34.8867C50.0698 34.8867 46.8119 33.859 44.2399 31.7464C41.3249 29.3483 39.8389 25.9795 39.8389 21.583V0.457031H44.6971V20.5553C44.6971 22.5537 44.8114 23.9811 45.0972 24.8947C45.383 25.8083 45.8974 26.6647 46.7547 27.5212C48.6981 29.4625 51.0986 30.4331 54.0707 30.4331C55.7854 30.4331 57.3286 30.2048 58.7575 29.6909C60.1293 29.177 61.2152 28.5489 62.0726 27.7496C62.8727 26.9502 63.4443 25.9224 63.7872 24.6663C64.1302 23.4102 64.2445 21.9827 64.2445 20.2698V0.514129H69.1028Z" fill="#787179"/>
    <path d="M95.6218 2.45519V7.99363C94.2501 6.68039 92.9355 5.76683 91.5637 5.25296C90.2491 4.73908 88.9345 4.45359 87.62 4.45359C86.0196 4.45359 84.705 4.79618 83.7333 5.53844C82.7617 6.28071 82.2473 7.25136 82.2473 8.45041C82.2473 10.1633 83.5047 11.8192 86.0196 13.3608C90.6492 16.2727 93.0498 17.7002 93.1069 17.8144C95.679 19.9841 96.9364 22.6106 96.9364 25.6938C96.9364 28.3774 96.0219 30.6042 94.2501 32.3171C92.4782 34.03 90.192 34.8865 87.3913 34.8865C83.8477 34.8865 80.6469 33.8587 77.8463 31.7461V25.5796C80.4183 28.8913 83.3904 30.49 86.8198 30.49C88.5916 30.49 89.9633 30.0332 90.935 29.1768C91.9067 28.3203 92.3639 27.2925 92.3639 26.2077C92.3639 24.3235 91.1065 22.4964 88.5916 20.7263C86.2482 19.1847 83.8477 17.6431 81.5043 16.1015C78.9322 14.0459 77.6748 11.705 77.6748 9.07848C77.6748 6.28071 78.5893 4.05391 80.4754 2.45519C82.3616 0.85646 84.8193 0 88.02 0C90.7064 0 93.2212 0.799363 95.6218 2.39809V2.45519Z" fill="#787179"/>
    <path d="M131.573 0.513672V4.91017H119.798V34.4866H114.94V4.91017H103.166V0.513672H131.573Z" fill="#787179"/>
    <path d="M135.117 17.4718C135.117 12.6185 136.775 8.5646 140.09 5.19586C143.519 1.77002 147.977 0 153.35 0C158.837 0 163.295 1.71292 166.724 5.13876C170.04 8.45041 171.64 12.5043 171.64 17.4147C171.64 22.2109 170.04 26.2648 166.782 29.5764C163.352 33.1165 158.837 34.8294 153.293 34.8294C147.863 34.8294 143.462 33.0594 140.033 29.5764C136.775 26.2648 135.174 22.2109 135.174 17.3576L135.117 17.4718ZM140.147 17.4718C140.147 21.1831 141.404 24.2664 143.862 26.7216C146.377 29.1768 149.521 30.4329 153.35 30.4329C157.122 30.4329 160.323 29.1768 162.838 26.7216C165.353 24.2664 166.61 21.1831 166.61 17.4718C166.61 13.7034 165.353 10.6201 162.838 8.16492C160.323 5.70974 157.179 4.51069 153.35 4.51069C149.578 4.51069 146.434 5.70974 143.919 8.16492C141.404 10.6201 140.147 13.7034 140.147 17.4718Z" fill="#787179"/>
    <path d="M209.592 0.514648V34.4876H204.676V8.0515L194.045 21.1839H193.245L182.728 8.0515L182.671 34.4876H177.756V0.514648H182.328L193.645 14.4464L205.019 0.514648H209.592Z" fill="#787179"/>
    <path fill-rule="evenodd" clip-rule="evenodd" d="M225.767 0.515105V34.488H220.908V8.05196L210.334 21.1844H209.534L201.875 11.5349L204.733 8.05196L209.991 14.504L221.308 0.572203H225.824L225.767 0.515105ZM199.017 15.0178L198.96 34.4309H194.102V21.1273L199.075 14.9607L199.017 15.0178ZM194.045 13.933V0.458008H198.617L201.818 4.39773L194.045 13.933Z" fill="#BCCC69"/>
    <path d="M251.03 0.342773L266.233 34.487H261.26L256.745 24.495H242.285L237.998 34.487H233.025L247.657 0.342773H251.087H251.03ZM249.258 7.82253L244.171 20.0985H254.745L249.258 7.82253Z" fill="#BCCC69"/>
    <path d="M270.92 34.4866V0.513672H284.123C289.953 0.513672 294.583 2.34079 297.898 5.99502C300.813 9.19247 302.241 13.018 302.241 17.4716C302.241 22.0394 300.641 25.9791 297.44 29.2336C294.011 32.7166 289.61 34.4866 284.18 34.4866H270.92ZM275.778 4.91017V30.0901H283.551C288.41 30.0901 292.068 28.4914 294.525 25.351C296.297 23.0671 297.155 20.4406 297.155 17.4716C297.155 13.8174 296.069 10.8483 293.839 8.6215C291.382 6.10921 287.895 4.91017 283.323 4.91017H275.778Z" fill="#BCCC69"/>
    <path d="M30.3499 2.85447V8.10743C26.2918 5.76644 22.4052 4.5674 18.6329 4.5674C14.7463 4.5674 11.4884 5.82354 8.91634 8.27872C6.34432 10.7339 5.02973 13.8743 5.02973 17.5856C5.02973 21.4111 6.28716 24.4944 8.80203 26.8925C11.3169 29.2906 14.6319 30.4896 18.7472 30.4896C22.6909 30.4896 26.6347 29.2335 30.6356 26.6641V31.9741C28.7495 32.9448 26.8633 33.687 24.9772 34.2009C23.0339 34.7148 20.862 35.0003 18.3471 35.0003C12.5172 35.0003 7.83038 33.059 4.40101 29.2335C1.48606 25.9218 0 22.2105 0 18.0995C0 12.9036 1.77184 8.62131 5.25835 5.25256C8.74487 1.88382 13.203 0.170898 18.6329 0.170898C21.9479 0.170898 25.8345 1.08446 30.2927 2.96867L30.3499 2.85447Z" fill="#787179"/>
    <path d="M331.391 0.513672V4.91017H316.988V15.1306H330.877V19.5271H316.988V30.0901H331.848V34.4866H312.072V0.513672H331.391Z" fill="#BCCC69"/>
    </svg>
    